<?xml version="1.0" encoding="UTF-8"?>
<svg id="Layer_2" data-name="Layer 2" xmlns="http://www.w3.org/2000/svg" viewBox="0 0 1878.06 1352.15">
  <g id="Layer_1-2" data-name="Layer 1">
    <path d="M3.12,320.7l142.55,155.11M566.75,567.83l-421.06-91.98M556.52,709.47l-16.48-101.79M305.54,566.03l234.5,41.65,26.71-39.85,2.84-23.92M3.12,437.21l142.57,38.63,410.84,233.63-7.1,53.65M569.59,455.61l-167.62,20.23M3.12,124.48l398.85,351.36,167.62,68.06,60.8-19.62M1058.84,518.77l-291.18,94.75-137.27-89.24-60.8-68.68M697.45,322.54l-116.48-65-11.38,198.07,197.76,123.87M502.54,3.12l194.91,319.42,122.74-207.25-52.84,464.19,331.27-165.32M1034.41,268.59l-214.23-153.3M780.41,3.12l39.78,112.17L720.17,3.12M1092.37,3.12l-57.95,265.47,64.2,145.57M1254.88,3.12l-156.27,411.04-39.77,104.62,268.22-6.75M1874.95,88.92l-1.88,1.45-546.01,421.65,7.95,185.18M1873.07,704.57l-538.06-7.36,22.73,82.78M1873.07,890.36l-515.33-110.37-65.63,77.27M1873.07,1136.87l-580.96-279.61-184.94,5.63M1225.2,987.34l-23.16,45.89M524.69,1348.69l172.75-273.13.07.73,4.48,52.61-123.68,219.79-.2.35M1202.05,1119.09l-500.06,9.81M1344.68,1348.69l-142.63-229.6M1431.04,1348.69l-228.99-315.45M940.65,962.73l261.4,70.51v88.3M697.45,1076.78l.07-.49.1-.82,17.73-214.23M607.94,921.33l-78.13-34.96M116.71,921.33L3.12,972.53M336.04,978.97l-219.33-57.64,63.64-86.46M3.12,1336.78l604.83-415.44,41.76-6.44-202.25-131.95,82.36,103.43-193.77,92.6-155.69-144.1,267.11-51.93,101.96-19.82,165.92,98.12,229.86-88.82,39.55,2.74,26.93,1.86,95.49,85.86,118.03,124.46,342.74,361.35.33.35M697.45,1075.56l.17-.09,242.1-112.32.93-.43,41.46-186.81" style="fill: none; stroke: #919ea2; stroke-linecap: round; stroke-linejoin: round; stroke-width: 6.23px;"/>
  </g>
</svg>