<?xml version="1.0" encoding="UTF-8"?>
<svg id="Layer_2" data-name="Layer 2" xmlns="http://www.w3.org/2000/svg" viewBox="0 0 48.83 49.36">
  <g id="Layer_1-2" data-name="Layer 1">
    <path d="M46.13,11.74c2-1.73,2.71-3.45,2.7-4.88-.02-2.79-2.78-4.86-5.61-4.83-1.2.01-2.54.36-4.12.75-3.33.81-7.86,1.73-14.73-1.01C17.85-.83,10.3-.77,5.36,3.36,2.06,6.12-.13,10.71,0,17.64c.32,16.58,2.15,13.76,5.69,22.27,1.87,4.5,4.62,7.23,7.94,8.53,3.28,1.29,7.15,1.19,11.34-.1,8.25-2.53,12.21-7.11,14.74-16.14,1.21-4.32,1.81-8.47,2.64-12.09.78-3.39,1.75-6.3,3.78-8.38ZM44.31,4.25c-.35-.09-.71-.13-1.06-.13-1.06.01-2.25.35-3.65.69-3.62.88-8.53,1.88-16.01-1.1-5.78-2.31-12.5-2.41-16.89,1.25-2.91,2.43-4.73,6.52-4.61,12.63.31,16.02,2.11,13.28,5.53,21.51,1.61,3.87,3.92,6.27,6.77,7.39,2.88,1.14,6.28.98,9.96-.15,7.5-2.3,11.04-6.5,13.34-14.7,1.45-5.17,2.01-10.08,3.16-14.14.22-.76.45-1.49.72-2.19-3.58,3.46-4.42,7.16-5.33,12.73-1.25,7.74-5,10.8-5,10.8-.44.37-1.1.31-1.47-.13-.37-.44-.31-1.1.13-1.47,0,0,3.18-2.74,4.28-9.53,1.23-7.59,2.45-11.98,9.39-16.65.41-.27.77-.54,1.09-.81.04-.04.08-.07.12-.11,1.37-1.17,1.96-2.27,1.95-3.27,0-.46-.14-.88-.37-1.24-.51,1.32-2.32,2.97-7.74,3.98-4.16.77-5.39,1.45-6.55,1.98-1.28.58-2.47,1.01-6.76,1.16-8.46.3-14.25-3.97-14.25-3.97-.47-.34-.57-1-.22-1.46.34-.47,1-.57,1.46-.22,0,0,5.26,3.84,12.93,3.56,4.57-.16,5.2-.64,6.73-1.32,1.12-.5,2.68-1.12,6.27-1.78,3.17-.59,4.83-1.32,5.67-2.04.5-.43.51-.9.51-.93-.06-.11-.09-.22-.11-.34ZM7.64,18.61s1.08,3.25.46,7.07c-.71,4.36-1.32,8.97,4.68,14.79.41.4,1.08.39,1.48-.02.4-.41.39-1.08-.02-1.48-5.25-5.1-4.7-9.14-4.07-12.96.71-4.36-.54-8.07-.54-8.07-.18-.55-.78-.84-1.33-.66-.55.18-.84.78-.66,1.33ZM21.75,20.38c-2.02,0-3.65,1.64-3.65,3.65s1.64,3.65,3.65,3.65,3.65-1.64,3.65-3.65-1.64-3.65-3.65-3.65ZM21.75,22.47c.86,0,1.56.7,1.56,1.56s-.7,1.56-1.56,1.56-1.56-.7-1.56-1.56.7-1.56,1.56-1.56Z" style="fill: #d068baff; fill-rule: evenodd;"/>
  </g>
</svg>