<?xml version="1.0" encoding="UTF-8"?>
<svg id="Layer_2" data-name="Layer 2" xmlns="http://www.w3.org/2000/svg" viewBox="0 0 72.74 41.23">
  <g id="Layer_1-2" data-name="Layer 1">
    <path d="M3.85,12.64s-.04.09-.06.14c-.15.4-.25,1.21-.33,2.64-.06,1.01-.49,2.37-1.01,3.94-.84,2.56-1.93,5.61-2.31,8.54-.46,3.55.1,6.93,2.97,9.27,6.77,5.52,11.59,3.48,20.68.03,8.45-3.2,11.06-3.67,24.06-1.45,9.22,1.57,14.45,3.55,17.5,4.63,1.46.51,2.47.82,3.19.85,1.18.05,2.32-.21,3.13-1.1.47-.52.85-1.26.99-2.36.18-1.33.02-3.29-.71-6.13-1.94-7.47-10.03-10.68-10.84-10.98,0,0-8.18-3.96-10.13-4.9l.2-.94c.11-.49-.15-.98-.61-1.18l-5.85-2.53c-.3-.13-.64-.11-.92.04-.25.14-.44.37-.51.65l-4.63-2.5c.03-.37.05-.76.06-1.15.02-.5-.32-.95-.8-1.06,0,0-3.96-.94-7.31-2.49-.34-.16-.73-.12-1.04.09-.3.21-.47.57-.44.95,0,0,0,.02,0,.05l-3.52-1.56s-.07-.03-.1-.04c0,0-.94-.3-2.01-.2-1.19.11-2.53.67-3.14,2.44-.76,2.22-1,8.2-1.05,9.94-.64.17-1.31.24-2,.25-1.7.02-3.5-.37-5.14-.92.11-.65.41-2.22,1.26-5.67.57-2.3.88-4.18.76-5.63-.09-1.17-.46-2.1-1.11-2.81-.68-.73-1.69-1.25-3.16-1.47-1.57-.23-3.14.56-4.33,2.26-1.5,2.14-2.41,5.8-1.8,10.15,0,.07.02.13.05.19ZM23.32,24.01c2.73,2.37,5.62,5.21,8.38,8.55,0,.01.02.02.03.03,4.02-.67,8.27-.31,16.49,1.09,9.4,1.6,14.74,3.62,17.84,4.72,1.18.42,1.99.71,2.57.73.5.02,1.01,0,1.39-.3.4-.32.6-.93.63-1.91.04-1.13-.17-2.67-.71-4.75-.49-1.89-1.44-3.46-2.55-4.75-.13,0-.27-.03-.4-.08,0,0-4.91-2.03-13.1-.4-8.75,1.74-14.33.62-21.54-1.07-3.48-.82-6.68-1.44-9.02-1.86ZM3.12,24.09c-.17.59-.33,1.18-.47,1.78-.86,3.6-1.1,7.31,1.79,9.67,3.97,3.24,7.2,3.45,11.23,2.34-4.28-9.34-10.57-12.87-12.55-13.79ZM8.93,16.55c-.24-.11-.47-.23-.69-.34-1.05-.54-1.99-1.19-2.61-1.66-.03.29-.06.63-.08.99-.09,1.56-.96,3.91-1.81,6.54,2.02.88,9.2,4.65,13.94,15.17,1.62-.55,3.38-1.25,5.37-2.01,2.47-.94,4.47-1.66,6.36-2.15-3.46-4.06-7.09-7.33-10.3-9.84-.11-.06-.2-.13-.28-.22-5.41-4.19-9.56-6.21-9.56-6.21-.14-.07-.26-.16-.35-.27ZM28.5,11.09l-1.37-.35c-.45,1.17-1.48,3.19-3.79,5.59-1.55,1.61-3.68,2.27-5.98,2.3-.35,0-.71,0-1.07-.03,1.15.78,2.43,1.7,3.78,2.74,1.3.2,6.59,1.04,12.76,2.49,6.91,1.62,12.26,2.72,20.65,1.06,4.47-.89,8.05-.76,10.51-.41-1.96-1.29-3.62-1.86-3.62-1.86-.04-.01-.07-.03-.11-.05l-9.72-4.7-.96,4.41c-.09.39-.39.7-.78.8-3.11.73-7.49-.89-7.49-.89-.28-.1-.5-.32-.6-.6-.11-.28-.09-.58.04-.85,1.02-2.06,1.74-4.89,2.15-6.79-.03-.01-.06-.03-.09-.04l-4.35-2.34c-.95,7.22-3.65,9.48-3.65,9.48-.24.21-.55.3-.87.25l-7.67-1.31c-.34-.06-.62-.27-.77-.58s-.13-.67.03-.96c1.55-2.77,2.45-5.29,2.96-7.35ZM45.11,13.56l3.86,1.67-1.28,5.92c-1.61.18-3.44-.24-4.57-.57.99-2.41,1.66-5.35,2-7.02h0ZM31.23,7.14c2.13.85,4.25,1.47,5.38,1.77-.4,6.41-2.17,9.3-2.89,10.22,0,0-5.67-.97-5.67-.97,2.46-4.84,3.05-8.87,3.18-11.02h0ZM29.06,7.95c-1.06-.47-4.21-1.86-4.21-1.86-.14-.04-.61-.15-1.14-.1-.51.05-1.09.28-1.35,1.04-.59,1.73-.82,5.9-.91,8.19.13-.11.25-.22.37-.34,3.11-3.22,3.56-5.58,3.56-5.58.05-.29.22-.54.46-.7.25-.16.55-.21.83-.14l2.24.57c.06-.39.11-.75.15-1.08ZM10.28,2.24c.04.37.05.82.01,1.36-.11,1.79-.66,4.89-2.12,10.17.31.19.64.39,1.02.58.32.16.66.33,1.02.49.17-.91.51-2.55,1.21-5.39.48-1.94.78-3.54.72-4.79-.04-.72-.19-1.3-.58-1.73-.3-.32-.72-.54-1.28-.69ZM8.21,2.53c-.32.24-.62.57-.9.97-1.27,1.81-1.95,4.91-1.45,8.59.14.08.3.21.5.36,1.25-4.6,1.74-7.35,1.84-8.98.02-.38.03-.69,0-.94Z" style="fill: #d068baff; fill-rule: evenodd;"/>
  </g>
</svg>